<?xml version="1.0" encoding="UTF-8" standalone="no"?>
<!-- Created with Inkscape (http://www.inkscape.org/) -->

<svg
   width="99.762444mm"
   height="98.413582mm"
   viewBox="0 0 99.762444 98.413582"
   version="1.1"
   id="svg1"
   xml:space="preserve"
   xmlns="http://www.w3.org/2000/svg"
   xmlns:svg="http://www.w3.org/2000/svg"><style
     id="style1"></style><defs
     id="defs1" /><g
     id="layer1"
     transform="translate(-0.64321482,-0.99569744)"><path
       style="fill:#800000;stroke:none"
       d="M 46.28647,15.178504 C 30.645277,17.257318 17.727702,25.54847 8.7223721,38.614138 c -2.372849,3.442725 -6.406317,8.645783 -6.610705,12.964584 -0.245817,5.1942 4.58884,11.336784 7.4755,15.345834 C 19.89635,81.24215 36.819295,91.040995 54.753138,88.809639 c 14.785589,-1.839641 27.170694,-11.284631 35.606469,-23.208 2.496892,-3.529181 6.724824,-9.000424 6.724824,-13.49375 0,-4.805331 -4.652519,-10.547923 -7.329528,-14.287501 C 80.248345,24.540441 63.459196,12.896133 46.28647,15.178504 m 1.587501,7.900753 c 13.494945,-1.592247 26.928493,8.040882 34.625916,18.180715 1.930761,2.543393 6.271808,7.50014 6.271808,10.847917 0,3.099359 -3.91793,7.6642 -5.677521,10.054167 -6.94117,9.427873 -17.24768,17.283603 -29.134786,18.709881 -14.659628,1.758936 -27.443179,-5.876362 -36.577423,-16.857798 -2.114929,-2.542626 -3.854459,-5.336674 -5.491126,-8.202083 -0.592659,-1.037603 -1.645684,-2.46801 -1.645684,-3.704167 0,-3.220778 4.183684,-8.136184 6.051936,-10.583334 8.020279,-10.505452 18.508466,-16.903378 31.57688,-18.445298 m -0.264584,7.974453 c -4.233039,0.576213 -7.973274,1.840432 -11.377084,4.522415 -16.334461,12.870509 -4.69547,40.295027 15.875001,37.621869 3.169982,-0.411942 6.314287,-1.54674 8.995834,-3.283399 C 76.017014,60.255849 72.408876,37.268734 55.811471,31.912383 53.263342,31.090045 50.273493,30.691067 47.609387,31.05371 M 36.232303,51.843305 c 8.08062,0.637708 14.023111,-4.588927 12.964584,-12.964583 2.309481,0.0064 4.542597,0.491879 6.614584,1.537071 7.591175,3.829284 9.112009,14.817789 3.393648,20.942101 -4.044166,4.331264 -10.941427,5.025953 -16.093649,2.441885 -1.937301,-0.971642 -3.477537,-2.488305 -4.666753,-4.283557 -1.495827,-2.258114 -2.097519,-4.996929 -2.212414,-7.672917 z"
       id="path5" /></g></svg>
